<?xml version="1.0" encoding="utf-8"?>
<!-- Generator: Adobe Illustrator 16.0.0, SVG Export Plug-In . SVG Version: 6.00 Build 0)  -->
<!DOCTYPE svg PUBLIC "-//W3C//DTD SVG 1.1//EN" "http://www.w3.org/Graphics/SVG/1.1/DTD/svg11.dtd">
<svg version="1.1" id="Layer_1" xmlns="http://www.w3.org/2000/svg" xmlns:xlink="http://www.w3.org/1999/xlink" x="0px" y="0px"
	 width="262.41px" height="216.061px" viewBox="0 0 262.41 216.061" enable-background="new 0 0 262.41 216.061"
	 xml:space="preserve">
<path fill="#FBC4A6" d="M40.53,93.88c0,0,20.38,10.03,37.88,13.22c-3.35,17.09-9.66,31.33-17.71,40.34
	c-0.01,0.01-0.01,0.01-0.01,0.01c-5.94,6.65-12.82,10.45-20.16,10.45C18.15,157.9,0,122.55,0,78.95S18.15,0,40.53,0
	c7.91,0,15.28,4.41,21.51,12.04c7.41,9.06,13.21,22.64,16.37,38.76C60.9,54,40.53,64.03,40.53,64.03c-4.23,0-7.66,6.68-7.66,14.92
	C32.87,87.19,36.3,93.88,40.53,93.88z"/>
<path fill="#E1E2E3" d="M81.06,78.95c0,9.92-0.94,19.41-2.65,28.15c-17.5-3.19-37.88-13.22-37.88-13.22c4.23,0,7.66-6.69,7.66-14.93
	c0-8.24-3.43-14.92-7.66-14.92c0,0,20.37-10.03,37.88-13.23C80.12,59.54,81.06,69.03,81.06,78.95z"/>
<path fill="#ED8E5E" d="M262.41,62.39c0,11.46-5.95,21.52-14.93,27.27l-0.11-0.18c0,18.71-11.03,23.5-19.08,24.51l-13.85,43.87
	c0,0.01-0.01,0.02-0.01,0.03v0.01l-7.061,55.79c-2.27,1.13-4.3,1.79-6.13,2.069l0.17,0.181c-18.97,1.83-17.979-17.76-17.93-18.521
	c0-0.01,0-0.02,0-0.02c-0.391-11.16,5.069-27.67,8.439-36.7l4.2-45.57v-0.01c-0.03,0-0.04-0.01-0.05-0.01
	c-45.51-6.93-104.81,17.55-135.37,32.33c8.05-9.01,14.36-23.25,17.71-40.34c1.71-8.74,2.65-18.23,2.65-28.15s-0.94-19.41-2.65-28.15
	c-3.16-16.12-8.96-29.7-16.37-38.76C86.59,23.24,132.31,37.67,200,33.69c0,0-5.26-16.51,9.48-16.51h29.47
	c12.63,0,8.42,17.18,8.42,17.18l-0.3,0.51C256.28,40.57,262.41,50.77,262.41,62.39z"/>
<path fill="#ED8E5E" d="M48.19,78.95c0,8.24-3.43,14.93-7.66,14.93s-7.66-6.69-7.66-14.93c0-8.24,3.43-14.92,7.66-14.92
	S48.19,70.71,48.19,78.95z"/>
<path fill="#ED8E5E" d="M196.12,115.12v0.01c-0.03-0.01-0.05-0.02-0.05-0.02C196.08,115.11,196.09,115.12,196.12,115.12z"/>
</svg>
