<?xml version="1.0" encoding="utf-8"?>
<!-- Generator: Adobe Illustrator 16.0.0, SVG Export Plug-In . SVG Version: 6.00 Build 0)  -->
<!DOCTYPE svg PUBLIC "-//W3C//DTD SVG 1.1//EN" "http://www.w3.org/Graphics/SVG/1.1/DTD/svg11.dtd">
<svg version="1.1"
	 id="Layer_1" image-rendering="optimizeQuality" text-rendering="geometricPrecision" shape-rendering="geometricPrecision"
	 xmlns="http://www.w3.org/2000/svg" xmlns:xlink="http://www.w3.org/1999/xlink" x="0px" y="0px" width="64px" height="64px"
	 viewBox="0 0 64 64" enable-background="new 0 0 64 64" xml:space="preserve">
<path fill="#ED8E5E" d="M0.896,55.127h62.207c0.491,0,0.897,0.412,0.897,0.896v1.795c0,0.484-0.403,0.896-0.897,0.896H0.896
	c-0.494,0-0.897-0.403-0.897-0.896v-1.795C-0.001,55.53,0.405,55.127,0.896,55.127z M34.582,15.56
	c16.442,1.314,29.377,15.073,29.377,31.854c0,1.363-0.086,2.705-0.252,4.023H0.293c-0.167-1.334-0.251-2.678-0.251-4.023
	c0-16.857,13.052-30.665,29.602-31.872v-5.087h-5.042c-0.508,0-0.925-0.417-0.925-0.926V6.211c0-0.509,0.416-0.926,0.925-0.926
	H39.55c0.509,0,0.925,0.417,0.925,0.926v3.318c0,0.508-0.417,0.926-0.925,0.926h-4.968V15.56L34.582,15.56z"/>
</svg>
