<?xml version="1.0" encoding="utf-8"?>
<!-- Generator: Adobe Illustrator 16.0.0, SVG Export Plug-In . SVG Version: 6.00 Build 0)  -->
<!DOCTYPE svg PUBLIC "-//W3C//DTD SVG 1.1//EN" "http://www.w3.org/Graphics/SVG/1.1/DTD/svg11.dtd">
<svg version="1.1"
	 id="Layer_1" image-rendering="optimizeQuality" text-rendering="geometricPrecision" shape-rendering="geometricPrecision"
	 xmlns="http://www.w3.org/2000/svg" xmlns:xlink="http://www.w3.org/1999/xlink" x="0px" y="0px" width="64px" height="64px"
	 viewBox="0 0 64 64" enable-background="new 0 0 64 64" xml:space="preserve">
<path fill="#ED8E5E" d="M63.998,19.899c0.025,1.506-0.275,5.81-0.878,12.947h-0.929v22.382h-3.123V32.847h-0.516V8.771
	c1.054,0.163,1.957,0.64,2.685,1.43C63.058,12.058,63.973,15.295,63.998,19.899z M55.868,31.958c0,6.271-2.209,11.629-6.625,16.045
	c-4.429,4.429-9.774,6.637-16.047,6.637c-6.248,0-11.591-2.208-16.034-6.637c-4.429-4.416-6.649-9.773-6.649-16.045
	c0-6.248,2.22-11.581,6.649-16.022c4.442-4.429,9.786-6.649,16.034-6.649c6.272,0,11.618,2.22,16.047,6.649
	C53.659,20.376,55.868,25.709,55.868,31.958z M10.776,20.866c0,1.543-0.639,2.811-1.919,3.802C7.59,25.659,6.95,26.524,6.95,27.252
	v27.977H3.826V27.252c0-0.728-0.639-1.593-1.906-2.584C0.639,23.677,0,22.409,0,20.866c0-4.189,0.928-8.23,2.797-12.095v10.364
	h1.656V8.771h1.832v10.364h1.694V8.771C9.836,12.636,10.776,16.676,10.776,20.866L10.776,20.866z M49.732,31.958
	c0-4.554-1.605-8.444-4.83-11.668s-7.127-4.831-11.706-4.831c-4.567,0-8.457,1.606-11.667,4.831
	c-3.225,3.225-4.843,7.114-4.843,11.668c0,4.565,1.618,8.455,4.843,11.692c3.21,3.236,7.1,4.855,11.667,4.855
	c4.579,0,8.481-1.619,11.706-4.855C48.127,40.412,49.732,36.522,49.732,31.958z M48.076,31.958c0,4.114-1.442,7.626-4.354,10.539
	c-2.898,2.896-6.411,4.354-10.526,4.354c-4.09,0-7.591-1.457-10.5-4.354c-2.898-2.912-4.354-6.425-4.354-10.539
	c0-4.09,1.455-7.591,4.354-10.49c2.909-2.897,6.41-4.354,10.5-4.354c4.115,0,7.628,1.457,10.526,4.354
	C46.634,24.367,48.076,27.867,48.076,31.958z"/>
</svg>
