<?xml version="1.0" encoding="utf-8"?>
<!-- Generator: Adobe Illustrator 16.0.0, SVG Export Plug-In . SVG Version: 6.00 Build 0)  -->
<!DOCTYPE svg PUBLIC "-//W3C//DTD SVG 1.1//EN" "http://www.w3.org/Graphics/SVG/1.1/DTD/svg11.dtd">
<svg version="1.1"
	 id="Layer_1" image-rendering="optimizeQuality" text-rendering="geometricPrecision" shape-rendering="geometricPrecision"
	 xmlns="http://www.w3.org/2000/svg" xmlns:xlink="http://www.w3.org/1999/xlink" x="0px" y="0px" width="64px" height="64px"
	 viewBox="0 0 64 64" enable-background="new 0 0 64 64" xml:space="preserve">
<path fill="#EC8E5E" d="M54.39,52.79c5.351-5.61,8.641-13.2,8.641-21.56C63.03,13.99,49.04,0,31.8,0C14.55,0,0.56,13.99,0.56,31.23
	c0,17.25,13.99,31.23,31.24,31.23c6.391,0,12.33-1.92,17.29-5.22c6.311,6.09,4.3,7.08,14.351,6.68v-6.51
	C56.71,56.42,56.13,57.99,54.39,52.79z M32.24,5.66c4.64,0,8.41,3.76,8.41,8.4s-3.771,8.4-8.41,8.4c-4.64,0-8.4-3.76-8.4-8.4
	S27.6,5.66,32.24,5.66z M36.27,31.25c0,2.39-1.93,4.33-4.319,4.33c-2.39,0-4.32-1.94-4.32-4.33c0-2.38,1.93-4.32,4.32-4.32
	C34.34,26.93,36.27,28.87,36.27,31.25z M14.95,39.85c-4.64,0-8.4-3.76-8.4-8.399c0-4.64,3.76-8.41,8.4-8.41
	c4.64,0,8.41,3.77,8.41,8.41C23.36,36.09,19.59,39.85,14.95,39.85z M32.24,57.63c-4.64,0-8.4-3.76-8.4-8.399
	c0-4.641,3.76-8.41,8.4-8.41c4.64,0,8.41,3.77,8.41,8.41C40.65,53.87,36.88,57.63,32.24,57.63z M49.04,39.85
	c-4.64,0-8.4-3.76-8.4-8.399c0-4.64,3.761-8.41,8.4-8.41s8.41,3.77,8.41,8.41C57.45,36.09,53.68,39.85,49.04,39.85z"/>
<g>
	<path fill="none" d="M23.36,31.45c0,4.64-3.77,8.399-8.41,8.399c-4.64,0-8.4-3.76-8.4-8.399c0-4.64,3.76-8.41,8.4-8.41
		C19.59,23.04,23.36,26.81,23.36,31.45z"/>
	<path fill="none" d="M57.45,31.45c0,4.64-3.771,8.399-8.41,8.399s-8.4-3.76-8.4-8.399c0-4.64,3.761-8.41,8.4-8.41
		S57.45,26.81,57.45,31.45z"/>
	<path fill="none" d="M40.65,14.06c0,4.64-3.771,8.4-8.41,8.4c-4.64,0-8.4-3.76-8.4-8.4s3.76-8.4,8.4-8.4
		C36.88,5.66,40.65,9.42,40.65,14.06z"/>
	<path fill="none" d="M36.27,31.25c0,2.39-1.93,4.33-4.319,4.33c-2.39,0-4.32-1.94-4.32-4.33c0-2.38,1.93-4.32,4.32-4.32
		C34.34,26.93,36.27,28.87,36.27,31.25z"/>
	<path fill="none" d="M40.65,49.23c0,4.64-3.771,8.399-8.41,8.399c-4.64,0-8.4-3.76-8.4-8.399c0-4.641,3.76-8.41,8.4-8.41
		C36.88,40.82,40.65,44.59,40.65,49.23z"/>
</g>
</svg>
